<?xml version="1.0" encoding="UTF-8"?>
<svg xmlns="http://www.w3.org/2000/svg" viewBox="0 0 200 50">
  <defs>
    <style>
      .cls-1 {fill: #fff;}
      .cls-2 {fill: transparent;}
    </style>
  </defs>
  <g>
    <rect class="cls-2" width="200" height="50"/>
    <path class="cls-1" d="M141.16,22.84c0-5.58-1.64-9.97-4.87-13.05-3.22-3.07-8.03-4.63-14.31-4.63h-16.29l-9.42,44.84h19.11c4.24,0,8.01-.69,11.22-2.06,3.22-1.37,5.95-3.31,8.1-5.75,2.14-2.43,3.77-5.35,4.85-8.66,1.07-3.29,1.61-6.88,1.61-10.69Zm-25.36,17.24h-6.02l5.33-25h6.27c1.54,0,2.85,.23,3.9,.67,1.02,.44,1.88,1.06,2.53,1.85,.67,.81,1.16,1.78,1.46,2.89,.32,1.17,.48,2.51,.48,3.97,0,2.16-.32,4.22-.94,6.11-.62,1.87-1.53,3.54-2.7,4.96-1.16,1.4-2.62,2.52-4.34,3.33-1.72,.81-3.72,1.22-5.96,1.22Z"/>
    <polygon class="cls-1" points="144.81 16.98 137.85 50 148.41 50 155.44 16.98 144.81 16.98"/>
    <polygon class="cls-1" points="157.97 5.16 147.34 5.16 145.33 14.18 155.96 14.18 157.97 5.16"/>
    <path class="cls-1" d="M154.32,48.1c.89,.79,2.01,1.42,3.32,1.9h9.81c.22-.07,.44-.13,.66-.21,1.06-.39,2.04-.92,2.91-1.57v1.78h10.86l-.38-1.28c-.17-.58-.26-1.09-.26-1.52,0-.57,.03-1.26,.09-2.06,.05-.75,.15-1.38,.31-1.93l2.76-12.48c.45-2.06,.68-3.89,.68-5.41,.04-1.99-.42-3.62-1.38-4.86-.92-1.18-2.1-2.11-3.53-2.76-1.36-.62-2.87-1.04-4.48-1.25-3.53-.46-6.77-.41-9.81,.22-1.74,.36-3.34,.98-4.76,1.83-1.43,.87-2.66,2.02-3.66,3.43h0c-1.01,1.43-1.67,3.22-1.97,5.33l-.16,1.14h9.97l.15-.82c.23-1.28,.8-2.19,1.76-2.77,1.44-.89,3.07-1.16,5.17-.82,.51,.08,1,.24,1.44,.47,.41,.21,.74,.49,1.01,.85,.23,.3,.34,.74,.34,1.32,0,.73-.15,1.25-.44,1.56-.35,.36-.93,.65-1.73,.87-.92,.24-2.1,.42-3.51,.54-1.5,.12-3.26,.3-5.26,.54-3.95,.46-7.07,1.67-9.27,3.6-2.28,1.99-3.43,4.67-3.43,7.95,0,1.2,.23,2.37,.67,3.47,.46,1.12,1.17,2.11,2.12,2.95Zm8.07-9.31c.28-.48,.63-.85,1.07-1.12,.48-.3,1.06-.53,1.71-.69,.71-.17,1.45-.29,2.17-.36,1.25-.08,2.52-.19,3.77-.33,.63-.07,1.24-.2,1.83-.39l-.27,.95c-.23,.8-.52,1.6-.86,2.4-.31,.73-.74,1.39-1.28,1.96-.53,.56-1.2,1.03-1.98,1.4-.76,.36-1.74,.54-2.91,.54-1.06,0-1.96-.24-2.75-.72-.65-.4-.93-.94-.93-1.76s.14-1.41,.4-1.87Z"/>
    <path class="cls-1" d="M36.26,34.17c-.53-.77-1.2-1.39-2-1.88,.27-.12,.54-.26,.78-.41,.81-.5,1.51-1.12,2.09-1.87,.58-.74,1.02-1.59,1.32-2.53,.29-.92,.44-1.89,.44-2.86,0-1.64-.27-3.01-.8-4.09-.54-1.1-1.33-1.97-2.35-2.6-.98-.6-2.18-1.02-3.56-1.25-1.33-.22-2.84-.32-4.49-.32H13.59L6.58,50H24.6c1.69,0,3.32-.24,4.85-.71,1.55-.47,2.94-1.18,4.15-2.1,1.23-.94,2.21-2.13,2.93-3.54,.73-1.42,1.1-3.08,1.1-4.93,0-1.71-.46-3.24-1.37-4.55Zm-12.02,1.52c.6,0,1.23,.03,1.87,.09,.57,.05,1.09,.19,1.55,.4,.43,.2,.77,.48,1.04,.86,.25,.35,.38,.87,.38,1.54,0,1.49-.42,2.57-1.29,3.3-.9,.76-2.05,1.13-3.5,1.13h-7.94l1.57-7.32h6.32Zm2.07-6.31h-7.09l1.26-6.02h6.86c.98,0,1.75,.19,2.3,.56,.46,.31,.69,.98,.69,1.97,0,1.17-.36,2.01-1.12,2.57-.82,.61-1.77,.91-2.9,.91Z"/>
    <path class="cls-1" d="M51.45,33.24l-.53-.07c-1.69-.23-3.37-.02-4.8,.8-.37,.21-.7,.45-1,.73l.27-1.2h-5.08l-3.42,16.51h5.25l1.52-7.27c.13-.63,.31-1.25,.53-1.83,.21-.56,.5-1.06,.85-1.5,.34-.42,.77-.76,1.27-1.01,.68-.33,1.65-.49,2.67-.29l1.39,.28,1.08-5.15Z"/>
    <polygon class="cls-1" points="82.28 42.85 81.87 33.49 76.74 33.49 72.63 42.9 72.11 33.49 66.73 33.49 68.55 50 73.8 50 77.93 40.62 78.39 50 83.61 50 92.23 33.49 86.59 33.49 82.28 42.85"/>
    <path class="cls-1" d="M61.21,49.6c1.17-.53,2.18-1.27,3-2.19,.82-.93,1.45-2.03,1.88-3.27,.43-1.24,.64-2.58,.64-3.99,0-1.18-.19-2.23-.56-3.11-.38-.89-.93-1.64-1.62-2.23-.69-.58-1.52-1.02-2.47-1.31-.93-.28-1.97-.43-3.07-.43-1.45,0-2.77,.27-3.93,.81-1.16,.54-2.16,1.28-2.97,2.21-.81,.93-1.44,2.02-1.87,3.24-.43,1.22-.64,2.53-.64,3.9,0,2.36,.71,4.17,2.11,5.37,.75,.64,1.65,1.1,2.67,1.4h5.7c.39-.11,.78-.24,1.14-.4Zm-3.79-3.39c-.42,0-.79-.08-1.1-.23-.31-.16-.58-.37-.79-.63-.22-.27-.39-.59-.5-.94h0c-.11-.37-.17-.76-.17-1.17,0-.62,.09-1.29,.26-2,.17-.7,.42-1.36,.76-1.96,.32-.58,.75-1.06,1.26-1.45,.49-.37,1.05-.54,1.72-.54,.97,0,1.65,.25,2.02,.73,.4,.53,.6,1.27,.6,2.19,0,.62-.09,1.29-.26,2.01-.17,.71-.43,1.38-.77,1.98-.33,.59-.76,1.08-1.28,1.47-.48,.37-1.06,.54-1.75,.54Z"/>
  </g>
</svg>