<?xml version="1.0" encoding="UTF-8"?>
<svg xmlns="http://www.w3.org/2000/svg" viewBox="0 0 16 16">
  <path fill="white" d="m12,8.5v-1h-1.0504c-.0767-.4546-.2518-.8732-.5085-1.2339l.741-.741-.7072-.7072-.741.741c-.3607-.2567-.7793-.4319-1.2339-.5085v-1.0504h-1v1.0504c-.4546.0767-.8732.2518-1.2339.5085l-.741-.741-.7072.7072.741.741c-.2567.3607-.4319.7793-.5085,1.2339h-1.0504v1h1.0504c.0767.4546.2518.8732.5085,1.2339l-.741.741.7072.7072.741-.741c.3607.2567.7793.4319,1.2339.5085v1.0504h1v-1.0504c.4546-.0767.8732-.2518,1.2339-.5085l.741.741.7072-.7072-.741-.741c.2567-.3607.4319-.7793.5085-1.2339h1.0504Zm-4,1.5c-1.1046,0-2-.8954-2-2s.8954-2,2-2,2,.8954,2,2-.8954,2-2,2Z"/>
  <path fill="white" d="m13,3v10H3V3h10m1-1H2v12h12V2h0Z"/>
</svg>